# This file uses centimeters as units for non-parametric coordinates.

mtllib LilyPad.mtl
g default
v 0.728252 -0.169870 -0.236624
v 0.619488 -0.169870 -0.450085
v 0.809018 0.169870 -0.587786
v 0.951057 0.169870 -0.309017
v 0.450085 -0.169870 -0.619489
v 0.587786 0.169870 -0.809017
v 0.236623 -0.169870 -0.728252
v 0.309017 0.169870 -0.951057
v -0.000000 -0.169870 -0.765730
v -0.000000 0.169870 -1.000000
v -0.236624 -0.169870 -0.728252
v -0.309017 0.169870 -0.951057
v -0.450085 -0.169870 -0.619488
v -0.587785 0.169870 -0.809017
v -0.619488 -0.169870 -0.450085
v -0.809017 0.169870 -0.587785
v -0.728252 -0.169870 -0.236623
v -0.951057 0.169870 -0.309017
v -0.765730 -0.169870 -0.000000
v -1.000000 0.169870 0.000000
v -0.728252 -0.169870 0.236623
v -0.951057 0.169870 0.309017
v -0.619488 -0.169870 0.450084
v -0.809017 0.169870 0.587785
v -0.450085 -0.169870 0.619488
v -0.587785 0.169870 0.809017
v -0.236623 -0.169870 0.728252
v -0.309017 0.169870 0.951057
v -0.000000 -0.169870 0.765729
v -0.000000 0.169870 1.000000
v 0.236623 -0.169870 0.728252
v 0.309017 0.169870 0.951057
v 0.450084 -0.169870 0.619488
v 0.587785 0.169870 0.809017
v 0.728252 -0.169870 0.236623
v 0.765729 -0.169870 -0.000000
v 1.000000 0.169870 -0.000000
v 0.951057 0.169870 0.309017
v -0.000000 -0.169870 -0.000000
v 0.000000 0.169870 0.000000
vt 0.375000 0.312500
vt 0.387500 0.312500
vt 0.387500 0.688440
vt 0.375000 0.688440
vt 0.400000 0.312500
vt 0.400000 0.688440
vt 0.412500 0.312500
vt 0.412500 0.688440
vt 0.425000 0.312500
vt 0.425000 0.688440
vt 0.437500 0.312500
vt 0.437500 0.688440
vt 0.450000 0.312500
vt 0.450000 0.688440
vt 0.462500 0.312500
vt 0.462500 0.688440
vt 0.475000 0.312500
vt 0.475000 0.688440
vt 0.487500 0.312500
vt 0.487500 0.688440
vt 0.500000 0.312500
vt 0.500000 0.688440
vt 0.512500 0.312500
vt 0.512500 0.688440
vt 0.525000 0.312500
vt 0.525000 0.688440
vt 0.537500 0.312500
vt 0.537500 0.688440
vt 0.550000 0.312500
vt 0.550000 0.688440
vt 0.562500 0.312500
vt 0.562500 0.688440
vt 0.575000 0.312500
vt 0.575000 0.688440
vt 0.600000 0.312500
vt 0.612500 0.312500
vt 0.612500 0.688440
vt 0.600000 0.688440
vt 0.625000 0.312500
vt 0.625000 0.688440
vt 0.500000 0.837500
vt 0.500000 0.150000
vt 0.648603 0.795466
vt 0.591841 0.282659
vn 0.782957 -0.567679 -0.254397
vn 0.666023 -0.567679 -0.483894
vn 0.666023 -0.567679 -0.483894
vn 0.782957 -0.567679 -0.254397
vn 0.483894 -0.567679 -0.666023
vn 0.483894 -0.567679 -0.666023
vn 0.254398 -0.567679 -0.782957
vn 0.254398 -0.567679 -0.782957
vn -0.000000 -0.567679 -0.823250
vn -0.000000 -0.567679 -0.823250
vn -0.254398 -0.567679 -0.782957
vn -0.254398 -0.567679 -0.782957
vn -0.483894 -0.567679 -0.666023
vn -0.483894 -0.567679 -0.666023
vn -0.666023 -0.567679 -0.483894
vn -0.666023 -0.567679 -0.483894
vn -0.782957 -0.567679 -0.254398
vn -0.782957 -0.567679 -0.254398
vn -0.823250 -0.567679 0.000000
vn -0.823250 -0.567679 0.000000
vn -0.782957 -0.567679 0.254398
vn -0.782957 -0.567679 0.254398
vn -0.666023 -0.567679 0.483894
vn -0.666023 -0.567679 0.483894
vn -0.483894 -0.567679 0.666023
vn -0.483894 -0.567679 0.666023
vn -0.254398 -0.567679 0.782957
vn -0.254398 -0.567679 0.782957
vn 0.000000 -0.567679 0.823250
vn 0.000000 -0.567679 0.823250
vn 0.254398 -0.567679 0.782957
vn 0.254398 -0.567679 0.782957
vn 0.375230 -0.562914 0.736431
vn 0.375230 -0.562914 0.736431
vn 0.816340 -0.562914 0.129296
vn 0.823250 -0.567679 0.000001
vn 0.823250 -0.567679 0.000001
vn 0.816340 -0.562914 0.129296
vn 0.809017 -0.000000 0.587785
vn 0.809017 -0.000000 0.587785
vn -0.309017 -0.000000 0.951057
vn -0.309017 -0.000000 0.951057
vn 0.809017 0.000000 -0.587785
vn 0.809017 0.000000 -0.587785
s 1
g polySurface1 pCylinder1
usemtl initialShadingGroup
f 1/1/1 2/2/2 3/3/3 4/4/4
f 2/2/2 5/5/5 6/6/6 3/3/3
f 5/5/5 7/7/7 8/8/8 6/6/6
f 7/7/7 9/9/9 10/10/10 8/8/8
f 9/9/9 11/11/11 12/12/12 10/10/10
f 11/11/11 13/13/13 14/14/14 12/12/12
f 13/13/13 15/15/15 16/16/16 14/14/14
f 15/15/15 17/17/17 18/18/18 16/16/16
f 17/17/17 19/19/19 20/20/20 18/18/18
f 19/19/19 21/21/21 22/22/22 20/20/20
f 21/21/21 23/23/23 24/24/24 22/22/22
f 23/23/23 25/25/25 26/26/26 24/24/24
f 25/25/25 27/27/27 28/28/28 26/26/26
f 27/27/27 29/29/29 30/30/30 28/28/28
f 29/29/29 31/31/31 32/32/32 30/30/30
f 31/31/31 33/33/33 34/34/34 32/32/32
f 35/35/35 36/36/36 37/37/37 38/38/38
f 36/36/36 1/39/1 4/40/4 37/37/37
s 2
f 40/41/39 39/42/40 35/35/41 38/43/42
f 34/34/43 33/44/44 39/42/40 40/41/39
g default
v 0.728252 -0.169870 -0.236624
v 0.619488 -0.169870 -0.450085
v 0.450085 -0.169870 -0.619489
v 0.236623 -0.169870 -0.728252
v -0.000000 -0.169870 -0.765730
v -0.236624 -0.169870 -0.728252
v -0.450085 -0.169870 -0.619488
v -0.619488 -0.169870 -0.450085
v -0.728252 -0.169870 -0.236623
v -0.765730 -0.169870 -0.000000
v -0.728252 -0.169870 0.236623
v -0.619488 -0.169870 0.450084
v -0.450085 -0.169870 0.619488
v -0.236623 -0.169870 0.728252
v -0.000000 -0.169870 0.765729
v 0.236623 -0.169870 0.728252
v 0.450084 -0.169870 0.619488
v 0.728252 -0.169870 0.236623
v 0.765729 -0.169870 -0.000000
v -0.000000 -0.169870 -0.000000
vt 0.626409 0.064408
vt 0.648603 0.107966
vt 0.500000 0.150000
vt 0.591842 0.029841
vt 0.548284 0.007647
vt 0.500000 -0.000000
vt 0.451716 0.007647
vt 0.408159 0.029841
vt 0.373591 0.064409
vt 0.351397 0.107966
vt 0.343750 0.156250
vt 0.351397 0.204534
vt 0.373591 0.248091
vt 0.408159 0.282659
vt 0.451716 0.304853
vt 0.500000 0.312500
vt 0.548284 0.304853
vt 0.591841 0.282659
vt 0.656250 0.156250
vt 0.648603 0.204534
vn 0.000000 -1.000000 0.000000
vn 0.000000 -1.000000 0.000000
vn 0.000000 -1.000000 0.000000
vn 0.000000 -1.000000 0.000000
vn 0.000000 -1.000000 0.000000
vn 0.000000 -1.000000 0.000000
vn 0.000000 -1.000000 0.000000
vn 0.000000 -1.000000 0.000000
vn 0.000000 -1.000000 0.000000
vn 0.000000 -1.000000 0.000000
vn 0.000000 -1.000000 0.000000
vn 0.000000 -1.000000 0.000000
vn 0.000000 -1.000000 0.000000
vn 0.000000 -1.000000 0.000000
vn 0.000000 -1.000000 -0.000000
vn 0.000000 -1.000000 0.000000
vn 0.000000 -1.000000 0.000000
vn 0.000000 -1.000000 0.000000
vn 0.000000 -1.000000 0.000000
vn 0.000000 -1.000000 0.000000
s 1
g pCylinder1 polySurface3 polySurface2
usemtl initialShadingGroup
f 42/45/45 41/46/46 60/47/47
f 43/48/48 42/45/45 60/47/47
f 44/49/49 43/48/48 60/47/47
f 45/50/50 44/49/49 60/47/47
f 46/51/51 45/50/50 60/47/47
f 47/52/52 46/51/51 60/47/47
f 48/53/53 47/52/52 60/47/47
f 49/54/54 48/53/53 60/47/47
f 50/55/55 49/54/54 60/47/47
f 51/56/56 50/55/55 60/47/47
f 52/57/57 51/56/56 60/47/47
f 53/58/58 52/57/57 60/47/47
f 54/59/59 53/58/58 60/47/47
f 55/60/60 54/59/59 60/47/47
f 56/61/61 55/60/60 60/47/47
f 57/62/62 56/61/61 60/47/47
f 59/63/63 58/64/64 60/47/47
f 41/46/46 59/63/63 60/47/47
g default
v 0.951057 0.169870 -0.309017
v 0.809018 0.169870 -0.587786
v 0.587786 0.169870 -0.809017
v 0.309017 0.169870 -0.951057
v 0.000000 0.169870 -1.000000
v -0.309017 0.169870 -0.951057
v -0.587785 0.169870 -0.809017
v -0.809017 0.169870 -0.587785
v -0.951057 0.169870 -0.309017
v -1.000000 0.169870 0.000000
v -0.951057 0.169870 0.309017
v -0.809017 0.169870 0.587785
v -0.587785 0.169870 0.809017
v -0.309017 0.169870 0.951057
v -0.000000 0.169870 1.000000
v 0.309017 0.169870 0.951057
v 0.587785 0.169870 0.809017
v 0.951057 0.169870 0.309017
v 1.000000 0.169870 0.000000
v 0.000000 0.169870 0.000000
vt 0.648603 0.892034
vt 0.626409 0.935591
vt 0.500000 0.837500
vt 0.591841 0.970159
vt 0.548284 0.992353
vt 0.500000 1.000000
vt 0.451716 0.992353
vt 0.408159 0.970159
vt 0.373591 0.935591
vt 0.351397 0.892034
vt 0.343750 0.843750
vt 0.351397 0.795466
vt 0.373591 0.751909
vt 0.408159 0.717341
vt 0.451716 0.695147
vt 0.500000 0.687500
vt 0.548284 0.695147
vt 0.591842 0.717341
vt 0.648603 0.795466
vt 0.656250 0.843750
vn 0.000000 1.000000 0.000000
vn 0.000000 1.000000 0.000000
vn 0.000000 1.000000 0.000000
vn 0.000000 1.000000 0.000000
vn 0.000000 1.000000 0.000000
vn 0.000000 1.000000 0.000000
vn 0.000000 1.000000 0.000000
vn 0.000000 1.000000 0.000000
vn 0.000000 1.000000 0.000000
vn 0.000000 1.000000 0.000000
vn 0.000000 1.000000 0.000000
vn 0.000000 1.000000 0.000000
vn 0.000000 1.000000 0.000000
vn 0.000000 1.000000 0.000000
vn 0.000000 1.000000 0.000000
vn 0.000000 1.000000 0.000000
vn 0.000000 1.000000 0.000000
vn 0.000000 1.000000 0.000000
vn 0.000000 1.000000 0.000000
vn 0.000000 1.000000 0.000000
s 1
g pCylinder1 polySurface2 polySurface4
usemtl initialShadingGroup
f 61/65/65 62/66/66 80/67/67
f 62/66/66 63/68/68 80/67/67
f 63/68/68 64/69/69 80/67/67
f 64/69/69 65/70/70 80/67/67
f 65/70/70 66/71/71 80/67/67
f 66/71/71 67/72/72 80/67/67
f 67/72/72 68/73/73 80/67/67
f 68/73/73 69/74/74 80/67/67
f 69/74/74 70/75/75 80/67/67
f 70/75/75 71/76/76 80/67/67
f 71/76/76 72/77/77 80/67/67
f 72/77/77 73/78/78 80/67/67
f 73/78/78 74/79/79 80/67/67
f 74/79/79 75/80/80 80/67/67
f 75/80/80 76/81/81 80/67/67
f 76/81/81 77/82/82 80/67/67
f 78/83/83 79/84/84 80/67/67
f 79/84/84 61/65/65 80/67/67
